<?xml version="1.0" encoding="utf-8"?>
<!-- Generator: Adobe Illustrator 24.3.0, SVG Export Plug-In . SVG Version: 6.00 Build 0)  -->
<svg version="1.1" id="layer1" xmlns="http://www.w3.org/2000/svg" xmlns:xlink="http://www.w3.org/1999/xlink" x="0px"
	 y="0px" viewBox="0 0 5236 344" style="enable-background:new 0 0 5236 344;" xml:space="preserve">
<style type="text/css">
	.st0{fill:none;stroke:#1E1E1E;stroke-width:1.5;stroke-miterlimit:10;}
</style>
<path class="st0" d="M2939.5,342.8c-50.9,0-83.6-21-89.6-57.6h53.1c4,12.5,16,18.9,35.6,18.9c25.2,0,39.2-12.9,39.2-36.3v-3.9
	c0-9,0.4-17,1.1-24.5l0-0.3h-1.8l-0.1,0.1c-10.9,18.3-27.3,27.2-50.2,27.2c-21.8,0-41.9-8.1-56.6-22.9c-15.9-16-24.4-38.5-24.4-65.1
	c0-53.8,32.1-91.5,78.2-91.5c26.4,0,43.4,9.2,53.4,29l0.1,0.1h1.1V92.2h52v169.5c0,26.2-8.1,46.7-24,60.7
	C2991.3,335.8,2968.1,342.8,2939.5,342.8z M2938.7,128.1c-24.3,0-39.5,18.8-39.5,49c0,29.9,15.3,48.6,39.8,48.6
	c25.7,0,40.5-17.8,40.5-49C2979.5,146.8,2963.9,128.1,2938.7,128.1z M4954.5,340.2c-1.6,0-33.6-0.3-36.5-0.6V297h2.5
	c1.3,0.4,12.9,0.4,17.9,0.4c17,0,25.8-6.3,26.8-19.1c0-6.3-3-20.4-9.8-37.6l-57.7-148.5h57.3l23.6,71.2
	c8.3,24.9,15.3,64.4,15.4,64.8l0,0.2h1.1l0-0.2c0.1-0.4,8.6-40.2,16.5-64.8l22.7-71.2h54.1l-66.4,190.4
	C5007.2,325.7,4990.1,340.2,4954.5,340.2z M4251.7,340l0.1-247.7h52.4v26.6h1.4l0.1-0.1c12.6-21.4,31.1-31.8,56.5-31.8
	c47.8,0,79.9,39.4,79.9,98.1c0,60-32,98.9-81.6,98.9c-23.8,0-43.8-10.6-54.8-29l-0.1-0.1h-1.1l0,0.3c0.5,4.7,1.8,18.1,1.8,40.6V340
	H4251.7z M4346.6,130.2c-26.1,0-42.2,21.7-42.2,56.7c0,33.8,16.5,54.8,43,54.8c24.7,0,39.5-20.5,39.5-54.8
	C4386.8,150.9,4372.1,130.2,4346.6,130.2z M3778,284c-28.7,0-53.4-9.8-71.5-28.4c-17.4-17.9-27-42.8-27-70c0-27.4,9.6-52.3,27-70.2
	c18-18.5,42.8-28.3,71.5-28.3c28.5,0,53.1,9.8,71,28.3c17.3,17.8,26.8,42.8,26.8,70.2c0,27.3-9.5,52.2-26.7,70
	C3831.1,274.1,3806.5,284,3778,284z M3777.6,125.8c-26.9,0-42.9,22.3-42.9,59.8c0,37,16.1,59,42.9,59c26.5,0,43-22.6,43-59
	C3820.5,148.6,3804.1,125.8,3777.6,125.8z M3533.3,284c-36.4,0-69.1-13.6-92.2-38.4c-22.8-24.5-35.4-58.8-35.4-96.6
	c0-38.1,12.3-72.5,34.7-96.9c23.2-25.3,55.3-38.7,92.9-38.7c28.8,0,53.4,7,71.2,20.3c22.6,16.6,36.9,42,40.1,71.6h-59
	c-3.8-25.9-24.5-42.7-52.7-42.7c-41.2,0-66.8,33.1-66.8,86.4c0,51.5,27,86,67.2,86c30,0,51.3-18.7,54.4-47.6h59.4
	c-1.7,24.8-13.1,49.3-31.4,67.2C3595.6,274.4,3568.6,284,3533.3,284z M2491.6,284c-28.7,0-53.4-9.8-71.5-28.4
	c-17.4-17.9-27-42.8-27-70c0-27.4,9.6-52.3,27-70.2c18-18.5,42.8-28.3,71.5-28.3c28.5,0,53.1,9.8,71,28.3
	c17.3,17.8,26.8,42.8,26.8,70.2c0,27.3-9.5,52.1-26.8,70C2544.6,274.1,2520.1,284,2491.6,284z M2491.2,125.8
	c-26.9,0-43,22.3-43,59.8c0,37,16.1,59,43,59c26.5,0,42.9-22.6,42.9-59C2534.1,148.6,2517.7,125.8,2491.2,125.8z M1309.6,283.5
	c-29.2,0-54.1-9.8-71.9-28.2c-17-17.6-26.3-42.4-26.4-69.9c0-57,40.1-98.4,95.4-98.4c25.3,0,46.8,8,63.9,23.7
	c19.9,19.2,30.3,49.7,30,88.2h-135.8l0,0.3c3.6,29,19.8,45,45.4,45c16.4,0,27.8-6.1,34.1-18.2h52.7c-4.9,16.7-15,30.9-29.3,40.9
	C1352.3,277.8,1332.2,283.5,1309.6,283.5z M1306.8,125.4c-23.8,0-37.8,14.1-41.4,41.9l0,0.3h80l0-0.3
	C1343.5,141.4,1328.7,125.4,1306.8,125.4z M566.5,283.5c-29.2,0-54.1-9.8-71.9-28.2c-17-17.6-26.3-42.4-26.4-69.9
	c0-57,40.1-98.4,95.4-98.4c25.2,0,46.7,8,63.9,23.7c19.9,19.2,30.3,49.7,30,88.2H521.7l0,0.3c3.6,29,19.8,45,45.4,45
	c16.6,0,27.8-6,34.2-18.2h52.7c-4.9,16.7-15,30.9-29.3,40.9C609.3,277.8,589.1,283.5,566.5,283.5z M563.7,125.4
	c-23.8,0-37.7,14.1-41.5,41.9l0,0.3h80.1l0-0.3C600.4,141.4,585.6,125.4,563.7,125.4z M2694.6,283.2c-40.9,0-65.2-25.4-65.2-68v-123
	h54.4v112.5c0,21.2,10.7,32.8,30,32.8c21.5,0,36-16.1,36-40.1V92.2h53.7V278H2752v-26.6h-1.5l-0.1,0.1
	C2736.6,273.4,2719.4,283.2,2694.6,283.2z M4537.4,282.8c-39.1,0-63.5-21.5-63.5-56.1c0-39.6,29.1-51.2,72.9-56.5
	c31.3-4.2,47.1-9.1,47.1-24c0-14.4-10.2-22.7-27.8-22.7c-19.5,0-31.1,8.7-32.7,24.5h-50.3c1.4-28.2,23.7-61.1,82.3-61.1
	c23.6,0,40.5,3.5,53.4,11.2c18.8,11,28.3,29.7,28.3,55.5v95.6c0,14.7,2.2,22.8,7,26v2.7h-53.1c-2.9-4.4-5.2-12.7-6.2-22.6l0-0.2
	h-1.1l-0.1,0.1C4579.8,274.6,4563,282.8,4537.4,282.8z M4595.1,187c-8.3,5-20.9,7.9-32.1,10.5c-23.8,5.1-35.9,10.8-35.9,27.5
	c0,19.4,17.3,22.3,27.5,22.3c24.1,0,40.9-14.8,40.9-36v-24.5L4595.1,187z M1495.5,282.8c-39.1,0-63.5-21.5-63.5-56.1
	c0-39.5,29.2-51.2,73-56.5c31.3-4.2,47.1-9.1,47.1-24c0-14.4-10.2-22.7-27.9-22.7c-19.6,0-31.2,8.7-32.8,24.5h-50.3
	c1.4-28.2,23.7-61.1,82.3-61.1c23.7,0,40.7,3.5,53.5,11.2c18.7,11,28.2,29.7,28.2,55.5v95.6c0,14.7,2.2,22.8,7,26v2.7h-53.2
	c-2.9-4.5-5.2-12.7-6.1-22.6l0-0.2h-1.1l-0.1,0.1C1537.9,274.6,1521.1,282.8,1495.5,282.8z M1553,187c-8.1,5-20.3,7.8-32.1,10.5
	c-23.3,5-35.9,10.9-35.9,27.5c0,14.4,9.8,22.3,27.5,22.3c11.9,0,22.2-3.6,29.7-10.3c7.2-6.5,11.2-15.7,11.2-25.7v-24.5L1553,187z
	 M1950.1,280c-18.8,0-32.6-3.4-41.9-10.3c-10.7-7.9-15.9-20.5-15.9-38.5V126.8h-28V92.2h28V32.8h53.3v59.5h36.4v34.5h-36.4v92.5
	c0,12.7,6.3,18.2,21,18.2c3.6,0,9.2-0.3,12.6-0.7l2.5,0v40.5C1971.5,279.1,1960.8,280,1950.1,280z M4146.7,278V164.5
	c0-20.9-10.2-32.9-27.9-32.9c-19.5,0-32.1,15.9-32.1,40.6V278h-54.5V164.5c0-21.2-9.8-32.9-27.6-32.9c-19.4,0-32.4,16.3-32.4,40.6
	V278h-54.5V92.2h52.4v29.1h1.5l0.1-0.1c12.4-23,30.6-34.2,55.8-34.2c24.1,0,41.2,11.9,50.9,35.2l0.1,0.2h1l0.1-0.1
	c14.5-23.4,34.3-35.3,59-35.3c20,0,35.7,6.3,46.6,18.7c10.3,11.8,15.8,29,15.8,49.6V278H4146.7z M78.8,278V68.4H1.4V18h214.4v50.3
	h-77.6V278H78.8z M4820.1,278V166.2c0-21.4-11.7-34.2-31.4-34.2c-21.2,0-36,17-36,41.2V278h-54.5V92.2h52.7l0,28.3h1.4l0.1-0.1
	c11.2-21.9,31-33.5,57.2-33.5c39.8,0,64.5,26.3,64.5,68.8V278H4820.1z M3203.8,278V166.2c0-21.4-11.7-34.2-31.3-34.2
	c-21.2,0-36,17-36,41.2V278h-54.4V18h54.4v71.6c0,3.9,0,17.7-0.5,29l0,0.3h1.5l0.1-0.1c11.6-20.8,30.9-31.8,55.8-31.8
	c39.8,0,64.5,26.3,64.5,68.8V278H3203.8z M2250.4,278V92.2h52.4l-0.1,33.3h1.5l0.1-0.1c11.4-24.7,27.8-36.3,51.6-36.3
	c5.8,0,9.2,0.4,11.4,1.3V138h-1.1c-4.1-0.7-7.9-1.1-11.6-1.1c-0.3,0-0.6,0-0.9,0c-31,0-48.7,20-48.7,54.9V278H2250.4z M2146,278
	V166.2c0-21.4-11.7-34.2-31.4-34.2c-21.2,0-35.9,17-35.9,41.2V278h-54.5V18h54.5v71.6c0,3.9,0,17.7-0.5,29l0,0.3h1.5l0.1-0.1
	c11.6-20.8,30.9-31.8,55.8-31.8c39.8,0,64.5,26.3,64.5,68.8V278H2146z M1777.5,278l-48.6-81.3l-18.9,19.5V278h-53.7V18h53.7v81
	c0,26.3-1,46.8-1.8,59.9l0,0.7l61.6-67.3h63l-66.2,68.7l74.1,117H1777.5z M1068.8,278V92.2h52.3l-0.1,33.2h1.5l0.1-0.1
	c11.4-24.7,27.8-36.3,51.6-36.3c5.8,0,9.1,0.4,11.4,1.3V138h-1.2c-4.1-0.7-7.9-1.1-11.6-1.1c-0.3,0-0.6,0-0.9,0
	c-30.9,0-48.6,20-48.6,54.9V278H1068.8z M809,278V17.9h122.9c26.2,0,47.2,6.2,60.7,17.8c14.5,12.8,21.9,29.5,21.9,49.5
	c0,25.8-14.1,43.2-41.8,52l-0.2,0.1v1.8l0.2,0c33,8,51.9,31,51.9,63.2c0,24.2-8.5,43.2-25.4,56.5C983.6,271.5,962,278,935,278H809z
	 M867.5,231.3h0.5l-0.2,0.2h60.9c11.6,0,21.3-3.3,27.9-9.5c6.2-5.8,9.6-14.3,9.6-24c0-21.1-14.7-34.1-38.4-34.1h-60.2V231.3z
	 M867.5,122.8h56c21.4,0,34.2-11,34.2-29.4c0-18.6-12.5-29.6-33.5-29.6h-56.7V122.8z M373.8,278V166.2c0-21.4-11.7-34.2-31.4-34.2
	c-21.2,0-35.9,17-35.9,41.2V278H252V18h54.4v71.6c0,3.9,0,17.7-0.4,29l0,0.3h1.5l0.1-0.1C319.2,97.9,338.4,87,363.3,87
	c39.8,0,64.6,26.3,64.6,68.8V278H373.8z"/>
</svg>
