<?xml version="1.0" encoding="utf-8"?>
<!-- Generator: Adobe Illustrator 24.3.0, SVG Export Plug-In . SVG Version: 6.00 Build 0)  -->
<svg version="1.1" id="layer1" xmlns="http://www.w3.org/2000/svg" xmlns:xlink="http://www.w3.org/1999/xlink" x="0px" y="0px"
	 viewBox="0 0 5236 344" style="enable-background:new 0 0 5236 344;" xml:space="preserve">
<style type="text/css">
	.st0{fill-rule:evenodd;clip-rule:evenodd;fill:#1E1E1E;stroke:#1E1E1E;stroke-width:0.3;stroke-miterlimit:10;}
</style>
<path id="The_Breakthrough_Company_のコピー" class="st0" d="M1.1,68.6h77.4v209.7h59.9V68.6H216V17.8H1.1V68.6z M306.6,89.6
	V17.8h-54.9v260.4h55v-105c0-23.8,14.4-41,35.7-41c20.3,0,31.1,13.6,31.1,34v112h54.6V155.7c0-41.7-23.8-69-64.8-69
	c-25.9,0-44.8,11.9-56,31.9h-1.1C306.6,106.4,306.6,91.3,306.6,89.6z M566.5,283.8c48,0,78.4-25.2,87.9-58.1h-53.2
	c-6,11.6-16.8,18.2-34,18.2c-26.6,0-41.7-16.8-45.2-44.8h135.8c0.3-36.8-9.1-68.3-30.1-88.6c-16.5-15.1-37.5-23.8-64.1-23.8
	c-56.7,0-95.6,42.7-95.6,98.7C468.1,241.1,505.6,283.8,566.5,283.8z M563.7,125.6c21.7,0,36.4,15.8,38.2,41.7h-79.5
	C525.9,141.7,538.5,125.6,563.7,125.6L563.7,125.6z M808.7,278.2H935c27.7,0,49-6.7,64.4-19.3c16.4-12.9,25.5-31.9,25.5-56.7
	c0-31.9-18.5-55.3-52.1-63.4v-1.4c28-8.8,42-26.2,42-52.2c0-20.7-7.7-37.1-22-49.7c-13.3-11.5-34-17.9-60.9-17.9H808.7V278.2
	L808.7,278.2z M867.8,122.5V64h56.4c20.3,0,33.3,10.5,33.3,29.4c0,19.3-13.7,29.1-34,29.1H867.8L867.8,122.5z M867.8,231.3v-67.2
	h59.9c21.7,0,38.2,11.2,38.2,33.9c0,9.8-3.5,18.2-9.5,23.8c-6.3,5.9-15.8,9.4-27.7,9.4h-60.9V231.3z M1121.3,92h-52.8v186.2h54.9
	v-86.5c0-36.4,19.6-55,49.3-54.6c3.9,0,7.7,0.4,11.6,1.1h1.4v-48c-2.5-1.1-6.3-1.4-11.6-1.4c-23.1,0-39.9,10.5-51.8,36.4h-1.1
	L1121.3,92L1121.3,92z M1309.6,283.8c47.9,0,78.4-25.2,87.8-58.1h-53.2c-5.9,11.6-16.8,18.2-33.9,18.2c-26.6,0-41.7-16.8-45.2-44.8
	h135.8c0.3-36.8-9.1-68.3-30.1-88.6c-16.4-15.1-37.4-23.8-64.1-23.8c-56.7,0-95.6,42.7-95.6,98.7
	C1211.2,241.1,1248.7,283.8,1309.6,283.8L1309.6,283.8z M1306.8,125.6c21.7,0,36.4,15.8,38.2,41.7h-79.4
	C1269,141.7,1281.6,125.6,1306.8,125.6L1306.8,125.6z M1558.7,278.2h53.6v-3.1c-4.9-3.2-7-11.2-7-25.9v-95.6
	c0-25.2-9.1-44.4-28.3-55.7c-12.9-7.7-29.8-11.2-53.6-11.2c-55.3,0-81.2,29.8-82.6,61.6h50.8c1.4-14.7,11.6-24.5,32.6-24.5
	c18.9,0,27.7,9.1,27.7,22.4c0,14-13.7,19.3-46.9,23.8c-40.6,4.9-73.2,15.4-73.2,56.7c0,36.8,26.9,56.4,63.7,56.4
	c28.7,0,44.1-10.5,56.3-27.7h0.7C1553.5,266,1555.9,274,1558.7,278.2L1558.7,278.2z M1512.5,247.1c-15.1,0-27.3-5.9-27.3-22.1
	s11.6-22.1,35.7-27.3c12.2-2.8,24.2-5.6,32.2-10.5v24.1C1553.1,231.7,1537,247.1,1512.5,247.1L1512.5,247.1z M1777.4,278.2h63.7
	L1766.9,161l66.5-69h-63.7l-61.2,66.9c0.7-11.9,1.8-32.6,1.8-59.9V17.8h-54.2v260.4h54.2v-61.9l18.6-19.2L1777.4,278.2z M1864,127
	h28v104.3c0,37.8,23.4,49,58.1,49c10.7,0,21.3-0.9,31.8-2.8v-41h-2.8c-3.5,0.4-9.1,0.7-12.6,0.7c-12.9,0-20.7-3.9-20.7-17.9V127
	h36.4V92h-36.4V32.5H1892V92h-28V127L1864,127z M2078.9,89.6V17.8h-55v260.4h55v-105c0-23.8,14.4-41,35.7-41
	c20.3,0,31.1,13.6,31.1,34v112h54.6V155.7c0-41.7-23.8-69-64.8-69c-25.9,0-44.8,11.9-56,31.9h-1.1
	C2078.9,106.4,2078.9,91.3,2078.9,89.6L2078.9,89.6z M2303,92h-52.9v186.2h54.9v-86.4c0-36.4,19.6-55,49.4-54.6
	c3.9,0,7.7,0.4,11.6,1.1h1.4v-48c-2.4-1.1-6.3-1.4-11.6-1.4c-23.1,0-39.9,10.5-51.8,36.4h-1.1L2303,92L2303,92z M2491.6,284.2
	c59.1,0,98-43.1,98-98.7c0-56-38.9-98.7-98-98.7c-59.5,0-98.7,42.7-98.7,98.7C2392.9,241.1,2432.1,284.2,2491.6,284.2z
	 M2491.2,244.3c-28,0-42.7-23.8-42.7-58.8c0-35.4,14.7-59.5,42.7-59.5c27.3,0,42.7,24.1,42.7,59.5
	C2533.9,220.5,2518.6,244.3,2491.2,244.3L2491.2,244.3z M2803.7,278.2V92h-54.2v105.4c0,23.1-13.6,39.9-35.7,39.9
	c-19.6,0-29.8-11.9-29.8-32.6V92h-54.9v123.2c0,41,23.1,68.3,65.5,68.3c25.6,0,42.4-10.2,56-31.9h1.1v26.6H2803.7L2803.7,278.2z
	 M2939.5,343c27.3,0,51.1-6.3,67.2-20.3c15.1-13.3,24.1-33.2,24.1-60.9V92h-52.5v23.8h-0.7c-10.5-20.7-28.4-29.1-53.6-29.1
	c-45.9,0-78.4,37.5-78.4,91.7c0,56.4,38.1,88.2,81.2,88.2c23.1,0,39.6-9.1,50.4-27.3h1.4c-0.8,8.1-1.1,16.3-1.1,24.5v3.9
	c0,22.8-12.9,36.1-38.9,36.1c-21.4,0-31.9-7.7-35.4-18.9h-53.6C2855.5,321.6,2888.4,343,2939.5,343L2939.5,343z M2939.1,225.4
	c-24.5,0-39.6-18.9-39.6-48.3c0-29.8,15.1-48.7,39.2-48.7c26.9,0,40.6,20.6,40.6,48.3S2967.1,225.4,2939.1,225.4L2939.1,225.4z
	 M3136.8,89.6V17.8h-54.9v260.4h54.9v-105c0-23.8,14.4-41,35.7-41c20.3,0,31.1,13.6,31.1,34v112h54.6V155.7c0-41.7-23.8-69-64.8-69
	c-25.9,0-44.8,11.9-56,31.9h-1.1C3136.8,106.4,3136.8,91.3,3136.8,89.6L3136.8,89.6z M3533.3,284.2c36.4,0,63-10.2,82.6-29.4
	c17.9-17.5,29.8-41.7,31.5-67.6h-59.9c-2.8,26.9-22.4,47.6-54.2,47.6c-40.9,0-66.9-36.1-66.9-85.8c0-49.3,22.1-86.1,66.5-86.1
	c29.4,0,49,18.2,52.5,42.7h59.5c-3.1-29.4-16.8-55-40.2-72.1c-17.9-13.3-42.7-20.3-71.4-20.3c-77.7,0-127.8,58.1-127.8,135.8
	S3457.4,284.2,3533.3,284.2L3533.3,284.2z M3778,284.2c59.2,0,98-43.1,98-98.7c0-56-38.9-98.7-98-98.7c-59.5,0-98.7,42.7-98.7,98.7
	C3679.3,241.1,3718.5,284.2,3778,284.2L3778,284.2z M3777.6,244.3c-28,0-42.7-23.8-42.7-58.8c0-35.4,14.7-59.5,42.7-59.5
	c27.3,0,42.7,24.1,42.7,59.5C3820.3,220.5,3804.9,244.3,3777.6,244.3L3777.6,244.3z M3917.5,278.2h54.9v-106
	c0-23.8,12.9-40.3,32.2-40.3c18.2,0,27.3,12.2,27.3,32.6v113.8h55V172.2c0-23.8,12.2-40.3,31.9-40.3c17.9,0,27.6,12.2,27.6,32.6
	v113.8h54.6V155.4c0-41.3-21.4-68.6-62.6-68.6c-23.5,0-43.8,10.5-59.2,35.4h-0.7c-9.5-23.1-26.6-35.4-51.1-35.4
	c-26.2,0-44.1,12.2-56,34.3h-1.1V92h-52.9v186.2H3917.5z M4251.4,340.2h55v-44.5c0-20-1-33.6-1.8-40.6h0.7
	c10.9,18.2,30.5,29.1,55,29.1c49.7,0,81.9-38.5,81.9-99.1c0-57.1-30.8-98.4-80.1-98.4c-25.5,0-44.1,10.5-56.7,31.9h-1V92h-52.9
	L4251.4,340.2L4251.4,340.2z M4347.3,241.5c-28,0-42.7-22.8-42.7-54.6c0-31.5,13.6-56.4,42-56.4c27,0,39.9,23.1,39.9,56.4
	S4372.2,241.5,4347.3,241.5L4347.3,241.5z M4600.8,278.2h53.5v-3.1c-4.9-3.2-7-11.2-7-25.9v-95.6c0-25.2-9.1-44.4-28.4-55.7
	c-13-7.7-29.8-11.2-53.5-11.2c-55.3,0-81.2,29.8-82.6,61.6h50.8c1.4-14.7,11.5-24.5,32.5-24.5c18.9,0,27.6,9.1,27.6,22.4
	c0,14-13.6,19.3-46.9,23.8c-40.6,4.9-73.1,15.4-73.1,56.7c0,36.8,27,56.4,63.7,56.4c28.7,0,44.1-10.5,56.4-27.7h0.7
	C4595.6,266,4598,274,4600.8,278.2L4600.8,278.2z M4554.6,247.1c-15,0-27.3-5.9-27.3-22.1s11.5-22.1,35.7-27.3
	c12.2-2.8,24.1-5.6,32.2-10.5v24.1C4595.2,231.7,4579.1,247.1,4554.6,247.1L4554.6,247.1z M4751.2,92H4698v186.2h55v-105
	c0-23.8,14.4-41,35.7-41c20.3,0,31.1,13.6,31.1,34v112h54.6V155.7c0-41.7-23.8-69-64.8-69c-25.9,0-45.9,11.2-57.4,33.6h-1L4751.2,92
	L4751.2,92z M4954.5,340.5c35.7,0,52.9-14.7,67.9-57.8L5088.9,92h-54.6l-22.8,71.4c-8,24.9-16.5,64.8-16.5,64.8h-0.7
	c0,0-7-39.6-15.4-64.8L4955.2,92h-57.8l57.8,148.8c6.6,16.8,9.8,31.1,9.8,37.5c-1,12.6-9.5,18.9-26.6,18.9c-1.4,0-17.1,0-17.9-0.4
	h-2.8v43.1C4918.8,340.2,4952.8,340.5,4954.5,340.5L4954.5,340.5z"/>
</svg>
